<svg width="13" height="14" viewBox="0 0 13 14" fill="none" xmlns="http://www.w3.org/2000/svg">
<path d="M6.72168 1C3.41334 1 0.72168 3.69166 0.72168 7C0.72168 10.3083 3.41334 13 6.72168 13C10.03 13 12.7217 10.3083 12.7217 7C12.7217 3.69166 10.03 1 6.72168 1ZM6.72168 12.25C3.82678 12.25 1.47168 9.8949 1.47168 7C1.47168 4.1051 3.82678 1.75 6.72168 1.75C9.61658 1.75 11.9717 4.1051 11.9717 7C11.9717 9.8949 9.61658 12.25 6.72168 12.25Z" fill="#7D7D7D" stroke="#7D7D7D" stroke-width="0.4"/>
<path d="M7.09668 3.25H6.34668V7.15526L8.70654 9.51512L9.23682 8.98485L7.09668 6.84472V3.25Z" fill="#7D7D7D" stroke="#7D7D7D" stroke-width="0.4"/>
</svg>
