<svg width="13" height="12" viewBox="0 0 13 12" fill="none" xmlns="http://www.w3.org/2000/svg">
<path d="M5.71353 1C5.71353 0.447715 6.16125 2.98495e-07 6.71353 2.07025e-07L6.96353 1.6562e-07C7.51582 7.41508e-08 7.96353 0.447716 7.96353 1L7.96353 11C7.96353 11.5523 7.51581 12 6.96353 12H6.71353C6.16125 12 5.71353 11.5523 5.71353 11L5.71353 1Z" fill="#828282"/>
<path d="M11.8385 4.875C12.3908 4.875 12.8385 5.32272 12.8385 5.875L12.8385 6.125C12.8385 6.67728 12.3908 7.125 11.8385 7.125L1.83853 7.125C1.28625 7.125 0.838531 6.67728 0.838531 6.125L0.838531 5.875C0.838531 5.32271 1.28625 4.875 1.83853 4.875L11.8385 4.875Z" fill="#828282"/>
</svg>
