<svg width="19" height="12" viewBox="0 0 19 12" fill="none" xmlns="http://www.w3.org/2000/svg">
<path fill-rule="evenodd" clip-rule="evenodd" d="M5.69642 11.848C5.29891 11.7798 4.92076 11.5914 4.6198 11.29L0.750984 7.4152C-0.0290337 6.63397 -0.0285452 5.36848 0.752076 4.58786L4.60017 0.739767C4.8783 0.461638 5.22224 0.279948 5.58643 0.200276C5.84582 0.0773255 6.13589 0.00854492 6.44203 0.00854492H16.9528C18.0573 0.00854492 18.9528 0.903975 18.9528 2.00854V9.99161C18.9528 11.0962 18.0573 11.9916 16.9528 11.9916H6.44203C6.17848 11.9916 5.92683 11.9406 5.69642 11.848Z" fill="#7D7D7D"/>
<path d="M7.12109 3.37513L8.36072 2.1355L14.8675 8.64228L13.6279 9.88191L7.12109 3.37513Z" fill="white"/>
<path d="M13.6279 2.1355L14.8675 3.37513L8.36072 9.88191L7.12109 8.64228L13.6279 2.1355Z" fill="white"/>
</svg>
