<svg width="77" height="30" viewBox="0 0 77 30" fill="none" xmlns="http://www.w3.org/2000/svg">
<rect x="0.888916" width="75.3333" height="30" rx="5" fill="#FD8181"/>
<path fill-rule="evenodd" clip-rule="evenodd" d="M27.2204 21.9616C27.0049 21.7513 26.8005 21.5518 26.599 21.3369C25.9587 20.6747 25.9169 20.0591 26.4802 19.502L29.4915 16.4907L29.5024 16.4798C29.6706 16.2928 29.9541 16.0844 30.3177 16.1091C30.6871 16.1342 31.02 16.3961 31.2329 16.609L33.3745 18.7506C33.4809 18.857 33.8065 19.1826 34.2932 19.2157C34.4867 19.2289 34.6711 19.1947 34.8637 19.1086C34.8751 19.1035 34.8863 19.097 34.8975 19.0904C34.9087 19.0839 34.92 19.0774 34.9313 19.0723C35.0942 18.9783 35.2868 18.8922 35.4907 18.801C35.7172 18.6996 35.9551 18.5932 36.1852 18.4571C37.4559 17.7077 38.6268 16.7713 39.7269 15.6235L42.6178 18.5144C40.6195 20.6005 38.2615 22.2348 35.5919 23.3836C34.4176 23.8816 32.8455 24.4518 31.1116 24.4449C31.0241 24.4448 30.9302 24.4384 30.8423 24.4325C29.9276 24.3703 29.2095 24.0239 28.5743 23.3504C28.1817 22.8977 27.7688 22.4902 27.363 22.1008C27.3149 22.0537 27.2674 22.0074 27.2204 21.9616ZM43.5008 17.5356C43.5968 17.4227 43.6918 17.3086 43.7859 17.1934C45.6216 14.9193 46.8071 12.782 47.5299 10.4499C47.976 9.02695 48.0981 7.90299 47.9373 6.824C47.832 6.13399 47.5295 5.54731 47.0098 5.02758L44.8745 2.8923C44.5689 2.60307 44.254 2.43577 43.955 2.41545C43.5856 2.39035 43.3017 2.59285 43.1268 2.76773L43.1104 2.78413C42.7755 3.09405 42.4589 3.41689 42.1263 3.76199C42.0411 3.85031 41.9545 3.93853 41.8671 4.02745C41.7811 4.115 41.6945 4.20323 41.6079 4.2929L40.1159 5.78487C39.5366 6.36417 39.5757 6.93879 40.2394 7.60254C40.3002 7.66331 40.3603 7.72403 40.4202 7.78451C40.5392 7.90478 40.6574 8.02413 40.7779 8.14106C41.3047 8.67878 41.8057 9.17972 42.3469 9.67173C42.3513 9.67616 42.3557 9.67986 42.3598 9.68333C42.3673 9.68966 42.3739 9.69521 42.3782 9.70304C42.9167 10.2416 42.8563 10.7277 42.7735 11.0548L42.7595 11.1063C42.4117 12.0866 41.8899 12.9966 41.0755 14.0677L41.0701 14.0732C40.9171 14.2675 40.7628 14.4571 40.6072 14.642L43.5008 17.5356Z" fill="white"/>
<rect x="30.2839" y="8.04688" width="1.31653" height="21.8869" rx="0.658263" transform="rotate(-45 30.2839 8.04688)" fill="white"/>
</svg>
