<svg width="13" height="12" viewBox="0 0 13 12" fill="none" xmlns="http://www.w3.org/2000/svg">
<path d="M0.50586 1C0.50586 0.447715 0.953575 3.17033e-07 1.50586 2.48431e-07L2.50586 1.24215e-07C3.05814 5.56131e-08 3.50586 0.447716 3.50586 1L3.50586 11C3.50586 11.5523 3.05814 12 2.50586 12H1.50586C0.953574 12 0.505859 11.5523 0.505859 11L0.50586 1Z" fill="#828282"/>
<path d="M9.50586 1C9.50586 0.447715 9.95358 3.17033e-07 10.5059 2.48431e-07L11.5059 1.24215e-07C12.0581 5.56131e-08 12.5059 0.447716 12.5059 1L12.5059 11C12.5059 11.5523 12.0581 12 11.5059 12H10.5059C9.95357 12 9.50586 11.5523 9.50586 11L9.50586 1Z" fill="#828282"/>
</svg>
