<svg width="14" height="14" viewBox="0 0 14 14" fill="none" xmlns="http://www.w3.org/2000/svg">
<path fill-rule="evenodd" clip-rule="evenodd" d="M4.25028 3.58557V7.21387C4.25028 8.74558 5.48553 9.96436 7.00077 9.98083C7.9867 9.98083 8.85408 9.45786 9.33977 8.67507L4.25028 3.58557ZM9.876 9.21129C9.24585 10.1239 8.19261 10.7225 7.00076 10.7225C5.07377 10.7225 3.50912 9.15781 3.50912 7.23082C3.50912 6.95083 3.29501 6.73672 3.01502 6.73672C2.73503 6.73672 2.52092 6.95083 2.52092 7.23082C2.52092 9.52015 4.2338 11.4471 6.50666 11.6942V13.0118H4.71143C4.43144 13.0118 4.21733 13.2259 4.21733 13.5059C4.21733 13.7859 4.43144 14 4.71143 14H9.29009C9.57008 14 9.78419 13.7859 9.78419 13.5059C9.78419 13.2259 9.57008 13.0118 9.29009 13.0118H7.49486V11.6942C8.77039 11.5556 9.86956 10.8878 10.5886 9.92388L9.876 9.21129ZM11.118 9.00519L10.3461 8.23329C10.4413 7.91571 10.4924 7.57919 10.4924 7.23082C10.4924 6.95083 10.7065 6.73672 10.9865 6.73672C11.2665 6.73672 11.4806 6.95083 11.4806 7.23082C11.4806 7.85858 11.3518 8.45909 11.118 9.00519ZM9.72481 7.612L4.30696 2.19415C4.56532 0.944167 5.67604 0 7.00077 0C8.51602 0 9.75127 1.23525 9.75127 2.75049V7.23034C9.75127 7.3598 9.74225 7.48722 9.72481 7.612Z" fill="#7D7D7D"/>
<rect x="0.940105" y="1.5918" width="1.02396" height="17.0232" rx="0.511982" transform="rotate(-45 0.940105 1.5918)" fill="#7D7D7D"/>
</svg>
