<svg width="13" height="14" viewBox="0 0 13 14" fill="none" xmlns="http://www.w3.org/2000/svg">
<path d="M12.645 12.0766L9.82406 9.25565C10.5192 8.37732 10.936 7.26568 10.936 6.05714C10.936 3.21008 8.62589 0.9 5.77882 0.9C2.92928 0.9 0.62168 3.21011 0.62168 6.05714C0.62168 8.90418 2.92928 11.2143 5.77882 11.2143C6.98729 11.2143 8.09663 10.7998 8.97491 10.1048L11.7963 12.9238C11.7963 12.9238 11.7963 12.9238 11.7963 12.9238C12.0312 13.1587 12.4103 13.1587 12.6452 12.924C12.8805 12.6914 12.8805 12.3093 12.6452 12.0768C12.6451 12.0767 12.6451 12.0767 12.645 12.0766ZM5.77882 10.0078C3.59809 10.0078 1.82576 8.23534 1.82576 6.05714C1.82576 3.87886 3.59817 2.10408 5.77882 2.10408C7.95706 2.10408 9.73188 3.8789 9.73188 6.05714C9.73188 8.23531 7.95714 10.0078 5.77882 10.0078Z" fill="#213991" stroke="#213991" stroke-width="0.2"/>
</svg>
