<svg width="17" height="14" viewBox="0 0 17 14" fill="none" xmlns="http://www.w3.org/2000/svg">
<path d="M10.305 3.33479V0.500158C10.305 0.299494 10.4257 0.118163 10.6103 0.0394972C10.7943 -0.0385018 11.0097 0.000830958 11.153 0.141496L16.8197 5.64143C16.917 5.73543 16.9717 5.86476 16.9717 6.00009C16.9717 6.13542 16.917 6.26475 16.8197 6.35875L11.153 11.8587C11.0083 11.9987 10.7937 12.038 10.6103 11.9607C10.4257 11.882 10.305 11.7007 10.305 11.5V8.66672H9.35968C6.26901 8.66672 3.41968 10.3467 1.92435 13.048L1.91035 13.0733C1.82101 13.236 1.65168 13.3333 1.47168 13.3333C1.43035 13.3333 1.38901 13.3287 1.34768 13.318C1.12635 13.2613 0.97168 13.062 0.97168 12.8333C0.97168 7.65074 5.14301 3.42412 10.305 3.33479Z" fill="#7D7D7D"/>
</svg>
